# xmcd
#
# Track frame offsets: 
#        150
#        90835
#        144522
#        180605
#        205291
#        234686
#        256958
#
# Disc length: 3721 seconds
#
# Revision: 0
# Processed by: cddbd v1.5.2PL0 Copyright (c) Steve Scherf et al.
# Submitted via: ExactAudioCopyFreeDBPlugin 1.0
#
DISCID=580e8707
DTITLE=Jimmy Smith - The Best of Jimmy Smith, 1956-1962 [Real Gone Jaz
DTITLE=z]
DYEAR=2016
DGENRE=Rhythm and Blues
TTITLE0=The Sermon
TTITLE1=J.O.S
TTITLE2=Flamingo
TTITLE3=These Foolish Things
TTITLE4=Someone to Watch Over Me
TTITLE5=Makin Whoopee
TTITLE6=Mack the Knife
EXTD=
EXTT0=
EXTT1=
EXTT2=
EXTT3=
EXTT4=
EXTT5=
EXTT6=
PLAYORDER=
